<?xml version="1.0" standalone="no"?>
<!DOCTYPE svg PUBLIC "-//W3C//DTD SVG 20010904//EN"
 "http://www.w3.org/TR/2001/REC-SVG-20010904/DTD/svg10.dtd">
<svg version="1.0" xmlns="http://www.w3.org/2000/svg"
 width="448.000000pt" height="448.000000pt" viewBox="0 0 448.000000 448.000000"
 preserveAspectRatio="xMidYMid meet">
<metadata>
Created by potrace 1.11, written by Peter Selinger 2001-2013
</metadata>
<g transform="translate(0.000000,448.000000) scale(0.100000,-0.100000)"
fill="#000000" stroke="none">
<path d="M1778 3470 c-9 -22 -18 -329 -11 -378 3 -23 9 -42 13 -42 17 0 22 41
20 175 -1 149 -13 270 -22 245z"/>
<path d="M2056 3272 c-21 -97 -36 -193 -34 -212 l4 -35 17 38 c10 20 28 114
42 208 29 198 27 179 17 179 -5 0 -26 -80 -46 -178z"/>
<path d="M1410 3421 c0 -49 51 -328 67 -363 21 -50 37 -38 28 21 -7 48 -84
353 -91 360 -2 2 -4 -6 -4 -18z"/>
<path d="M1570 3373 c0 -35 14 -60 24 -44 9 15 -3 71 -15 71 -5 0 -9 -12 -9
-27z"/>
<path d="M1926 3384 c-10 -27 -7 -56 7 -52 14 5 23 68 9 68 -6 0 -13 -7 -16
-16z"/>
<path d="M2403 3358 c-5 -7 -40 -86 -77 -176 -46 -111 -66 -174 -64 -195 l3
-32 21 35 c17 29 50 124 121 343 12 39 12 45 -4 25z"/>
<path d="M1100 3342 c0 -18 119 -333 138 -364 9 -15 20 -28 25 -28 19 0 -5 71
-77 228 -72 160 -86 186 -86 164z"/>
<path d="M2226 3334 c-3 -9 -6 -27 -6 -42 0 -34 17 -17 26 26 7 33 -9 46 -20
16z"/>
<path d="M1270 3312 c0 -21 26 -60 34 -51 8 8 -14 69 -25 69 -5 0 -9 -8 -9
-18z"/>
<path d="M1594 3185 c4 -55 10 -110 13 -122 8 -34 23 -28 23 10 0 41 -27 198
-36 206 -4 3 -4 -39 0 -94z"/>
<path d="M1925 3270 c-10 -17 -30 -208 -22 -216 15 -15 21 11 28 114 6 111 6
121 -6 102z"/>
<path d="M2513 3228 c-6 -7 -13 -23 -16 -36 -8 -34 15 -22 30 16 13 32 4 43
-14 20z"/>
<path d="M2603 3088 c-96 -148 -131 -213 -120 -224 12 -12 74 81 148 224 44
83 78 152 76 152 -3 0 -49 -69 -104 -152z"/>
<path d="M991 3205 c-1 -11 8 -31 19 -45 19 -24 20 -24 20 -4 0 12 -9 32 -20
45 -18 23 -19 23 -19 4z"/>
<path d="M2171 3117 c-35 -115 -37 -124 -17 -108 14 12 62 198 54 207 -3 2
-19 -42 -37 -99z"/>
<path d="M1310 3206 c0 -24 54 -193 66 -206 22 -23 18 4 -16 105 -26 77 -50
126 -50 101z"/>
<path d="M821 3179 c9 -13 51 -85 94 -159 96 -167 168 -249 121 -137 -17 42
-204 311 -219 316 -6 2 -5 -6 4 -20z"/>
<path d="M2428 3048 c-46 -87 -62 -128 -48 -128 4 0 12 6 18 13 15 18 84 188
79 194 -3 2 -25 -33 -49 -79z"/>
<path d="M1050 3097 c0 -16 91 -197 100 -197 17 0 11 21 -29 94 -42 74 -70
116 -71 103z"/>
<path d="M2772 3067 c-25 -26 -29 -49 -8 -41 13 5 40 53 33 60 -2 2 -13 -6
-25 -19z"/>
<path d="M730 3041 c0 -15 38 -56 45 -49 9 9 -21 58 -35 58 -6 0 -10 -4 -10
-9z"/>
<path d="M2840 2922 c-123 -130 -160 -176 -160 -200 0 -27 53 26 162 163 134
168 132 165 125 165 -3 0 -60 -58 -127 -128z"/>
<path d="M568 2995 c18 -34 222 -268 255 -292 39 -29 45 -23 19 19 -24 38
-290 303 -274 273z"/>
<path d="M1675 2989 c-234 -18 -464 -101 -652 -235 -224 -160 -398 -398 -488
-667 -49 -147 -82 -377 -54 -377 6 0 45 9 87 20 170 43 269 54 497 54 248 1
371 -14 590 -69 230 -58 456 -161 620 -282 l90 -66 55 32 c183 106 447 214
614 252 32 7 60 19 63 26 10 25 -18 243 -43 335 -83 309 -274 580 -535 758
-81 56 -242 134 -334 163 -150 47 -349 69 -510 56z"/>
<path d="M2670 2925 c-67 -86 -99 -140 -79 -133 16 5 144 187 136 194 -2 3
-28 -25 -57 -61z"/>
<path d="M810 2945 c0 -12 122 -175 131 -175 19 0 7 21 -52 94 -58 73 -79 94
-79 81z"/>
<path d="M2996 2864 c-28 -29 -29 -38 -2 -28 17 7 41 42 33 50 -2 2 -16 -8
-31 -22z"/>
<path d="M522 2813 c15 -15 31 -24 34 -20 10 10 -26 47 -45 47 -11 0 -8 -7 11
-27z"/>
<path d="M3040 2713 c-136 -100 -199 -157 -187 -169 11 -12 68 29 194 140 116
102 152 136 141 136 -2 0 -68 -48 -148 -107z"/>
<path d="M2849 2721 c-46 -43 -80 -82 -76 -87 4 -4 45 29 89 74 45 44 80 84
77 87 -3 3 -44 -30 -90 -74z"/>
<path d="M351 2761 c6 -17 259 -220 301 -242 109 -56 7 42 -166 160 -76 51
-137 88 -135 82z"/>
<path d="M600 2752 c0 -15 161 -154 169 -147 3 4 -21 32 -54 62 -73 67 -115
98 -115 85z"/>
<path d="M3188 2634 c-16 -8 -28 -21 -28 -30 0 -17 28 -6 50 21 18 22 10 26
-22 9z"/>
<path d="M320 2591 c0 -13 41 -41 60 -41 10 1 6 9 -13 25 -29 26 -47 32 -47
16z"/>
<path d="M3023 2521 c-92 -60 -116 -81 -89 -81 8 0 52 28 98 61 99 74 92 68
87 74 -3 2 -46 -22 -96 -54z"/>
<path d="M3195 2470 c-163 -80 -240 -130 -200 -130 30 1 86 29 220 110 211
128 207 132 -20 20z"/>
<path d="M425 2530 c7 -11 133 -98 172 -118 44 -24 32 7 -15 35 -80 50 -164
95 -157 83z"/>
<path d="M175 2491 c19 -19 320 -181 354 -191 96 -26 8 35 -161 113 -165 76
-208 93 -193 78z"/>
<path d="M3334 2370 c-30 -12 -39 -30 -16 -30 11 0 30 9 43 20 26 21 12 26
-27 10z"/>
<path d="M3167 2295 c-93 -37 -131 -58 -121 -68 11 -11 195 71 209 93 8 13 14
15 -88 -25z"/>
<path d="M194 2305 c22 -17 56 -20 56 -6 0 11 -25 21 -53 21 -22 -1 -22 -1 -3
-15z"/>
<path d="M300 2273 c0 -12 170 -83 200 -83 24 0 24 0 5 13 -11 8 -55 26 -98
41 -43 15 -85 30 -93 33 -7 3 -14 1 -14 -4z"/>
<path d="M3305 2205 c-182 -56 -225 -73 -225 -88 0 -18 77 2 242 64 152 57
203 81 168 78 -8 -1 -91 -25 -185 -54z"/>
<path d="M50 2197 c0 -8 343 -125 382 -130 21 -3 40 -2 42 2 10 15 -91 52
-239 86 -82 20 -158 38 -167 41 -10 3 -18 3 -18 1z"/>
<path d="M3412 2079 c-35 -14 -18 -29 21 -18 17 5 33 9 34 9 2 0 3 5 3 10 0
12 -27 12 -58 -1z"/>
<path d="M3242 2036 c-96 -21 -154 -46 -107 -46 27 0 198 50 210 61 5 5 7 9 5
8 -3 0 -51 -11 -108 -23z"/>
<path d="M95 2021 c7 -12 64 -25 73 -16 3 3 0 10 -8 15 -19 12 -73 13 -65 1z"/>
<path d="M220 1996 c0 -7 179 -46 208 -46 18 0 23 3 15 11 -17 17 -223 49
-223 35z"/>
<path d="M3375 1929 c-158 -17 -235 -34 -235 -51 0 -4 17 -8 38 -8 55 0 373
57 386 70 12 12 15 12 -189 -11z"/>
<path d="M160 1849 c91 -16 190 -27 220 -26 l55 2 -35 17 c-22 10 -90 20 -190
27 -225 16 -235 12 -50 -20z"/>
<path d="M3447 1783 c-28 -7 -9 -23 29 -23 24 0 34 4 32 13 -5 13 -32 18 -61
10z"/>
<path d="M3258 1771 c-94 -6 -126 -15 -96 -26 22 -9 209 12 222 25 7 7 4 9 -9
8 -11 -1 -64 -4 -117 -7z"/>
<path d="M60 1710 c0 -5 18 -10 41 -10 24 0 38 4 34 10 -3 6 -22 10 -41 10
-19 0 -34 -4 -34 -10z"/>
<path d="M220 1711 c-49 -5 -44 -7 56 -14 114 -7 168 -2 128 14 -22 9 -103 9
-184 0z"/>
<path d="M875 1700 c-137 -15 -296 -47 -393 -81 -95 -34 -207 -87 -199 -95 3
-3 70 0 149 7 339 28 702 -21 1014 -136 221 -82 555 -261 832 -447 56 -38 109
-71 117 -74 9 -4 38 15 72 46 143 129 421 287 658 374 354 129 653 180 1248
212 59 3 107 9 107 13 0 4 -53 21 -117 39 -419 114 -893 118 -1313 13 -216
-55 -436 -144 -594 -239 -75 -46 -87 -49 -107 -26 -25 31 -213 147 -313 195
-277 130 -568 195 -911 204 -88 2 -200 0 -250 -5z"/>
</g>
</svg>
